<?xml version="1.0" encoding="iso-8859-1"?>
<!-- Generator: Adobe Illustrator 19.0.0, SVG Export Plug-In . SVG Version: 6.00 Build 0)  -->
<svg xmlns="http://www.w3.org/2000/svg" xmlns:xlink="http://www.w3.org/1999/xlink" version="1.1" id="Capa_1" x="0px" y="0px" viewBox="0 0 502.664 502.664" style="enable-background:new 0 0 502.664 502.664;" xml:space="preserve" width="512px" height="512px">
<g>
	<g>
		<g>
			<path d="M251.386,24.515C112.448,24.515,0,106.98,0,208.622c0,62.555,42.818,117.647,107.962,150.931     L45.557,478.149l135.4-93.531c22.455,4.832,45.859,8.24,70.429,8.24c138.851,0,251.278-82.465,251.278-184.214     C502.686,106.98,390.237,24.515,251.386,24.515z M379.063,218.048h-33.499c-2.33,12.187-7.01,23.491-13.676,33.305l23.598,23.663     l-24.138,24.159l-23.642-23.642c-9.815,6.687-21.139,11.411-33.241,13.697v33.499h-34.082v-33.499     c-12.144-2.373-23.426-7.054-33.284-13.719l-23.663,23.663l-24.116-24.159l23.62-23.663     c-6.665-9.815-11.346-21.118-13.697-33.305h-33.478V184.01h33.499c2.33-12.166,7.032-23.426,13.676-33.241l-23.62-23.685     l24.116-24.116l23.685,23.663c9.836-6.709,21.118-11.368,33.262-13.762V79.434h34.082v33.435     c12.101,2.394,23.426,7.054,33.241,13.762l23.642-23.663l24.138,24.138l-23.598,23.663c6.665,9.815,11.325,21.118,13.676,33.241     h33.499V218.048z" fill="#3f4c6b"/>
			<circle cx="257.404" cy="201.05" r="37.21" fill="#3f4c6b"/>
		</g>
	</g>
	<g>
	</g>
	<g>
	</g>
	<g>
	</g>
	<g>
	</g>
	<g>
	</g>
	<g>
	</g>
	<g>
	</g>
	<g>
	</g>
	<g>
	</g>
	<g>
	</g>
	<g>
	</g>
	<g>
	</g>
	<g>
	</g>
	<g>
	</g>
	<g>
	</g>
</g>
<g>
</g>
<g>
</g>
<g>
</g>
<g>
</g>
<g>
</g>
<g>
</g>
<g>
</g>
<g>
</g>
<g>
</g>
<g>
</g>
<g>
</g>
<g>
</g>
<g>
</g>
<g>
</g>
<g>
</g>
</svg>
