<?xml version="1.0" encoding="utf-8"?>
<!-- Generator: Adobe Illustrator 19.2.0, SVG Export Plug-In . SVG Version: 6.00 Build 0)  -->
<svg version="1.1" id="Capa_1" xmlns="http://www.w3.org/2000/svg" xmlns:xlink="http://www.w3.org/1999/xlink" x="0px" y="0px"
	 viewBox="0 0 512 512" style="enable-background:new 0 0 512 512;" xml:space="preserve">
<style type="text/css">
	.st0{fill:#499BEA;}
</style>
<g>
	<g>
		<g>
			<path class="st0" d="M256.1,25C114.5,25,0,109,0,212.5c0,63.7,43.6,119.8,110,153.7L46.4,487l137.9-95.3
				c22.9,4.9,46.7,8.4,71.7,8.4c141.4,0,255.9-84,255.9-187.6C512,109,397.5,25,256.1,25z M386.1,222.1H352
				c-2.4,12.4-7.1,23.9-13.9,33.9l24,24.1l-24.6,24.6l-24.1-24.1c-10,6.8-21.5,11.6-33.9,14v34.1h-34.7v-34.1
				c-12.4-2.4-23.9-7.2-33.9-14l-24.1,24.1l-24.6-24.6l24.1-24.1c-6.8-10-11.6-21.5-14-33.9h-34.1v-34.7h34.1
				c2.4-12.4,7.2-23.9,13.9-33.9l-24.1-24.1l24.6-24.6L211,129c10-6.8,21.5-11.6,33.9-14V80.9h34.7V115c12.3,2.4,23.9,7.2,33.9,14
				l24.1-24.1l24.6,24.6l-24,24.1c6.8,10,11.5,21.5,13.9,33.9h34.1V222.1z"/>
			<circle class="st0" cx="262.2" cy="204.8" r="37.9"/>
		</g>
	</g>
</g>
</svg>
